<?xml version="1.0" encoding="iso-8859-1"?><svg width="964" height="512" viewBox="0 0 964 512" xmlns="http://www.w3.org/2000/svg" xmlns:xlink="http://www.w3.org/1999/xlink"><svg viewBox="0 0 512.001 512.001" width="512" height="512" id="svgsprite_close" xmlns="http://www.w3.org/2000/svg"><path d="M284.286 256.002L506.143 34.144c7.811-7.811 7.811-20.475 0-28.285-7.811-7.81-20.475-7.811-28.285 0L256 227.717 34.143 5.859c-7.811-7.811-20.475-7.811-28.285 0-7.81 7.811-7.811 20.475 0 28.285l221.857 221.857L5.858 477.859c-7.811 7.811-7.811 20.475 0 28.285a19.938 19.938 0 0014.143 5.857 19.94 19.94 0 0014.143-5.857L256 284.287l221.857 221.857c3.905 3.905 9.024 5.857 14.143 5.857s10.237-1.952 14.143-5.857c7.811-7.811 7.811-20.475 0-28.285L284.286 256.002z"/></svg><svg viewBox="0 0 451.74 451.74" width="451.74" height="451.74" id="svgsprite_error" x="512" xmlns="http://www.w3.org/2000/svg"><path d="M446.324 367.381L262.857 41.692c-15.644-28.444-58.311-28.444-73.956 0L5.435 367.381c-15.644 28.444 4.267 64 36.978 64h365.511c34.133-1.422 54.044-35.556 38.4-64z" fill="#e24c4b"/><path d="M225.879 63.025l183.467 325.689H42.413L225.879 63.025z" fill="#fff"/><g fill="#3f4448"><path d="M196.013 212.359l11.378 75.378c1.422 8.533 8.533 15.644 18.489 15.644 8.533 0 17.067-7.111 18.489-15.644l11.378-75.378c2.844-18.489-11.378-34.133-29.867-34.133-18.49-.001-31.29 15.644-29.867 34.133z"/><circle cx="225.879" cy="336.092" r="17.067"/></g></svg></svg>