<?xml version="1.0" encoding="utf-8"?><svg width="964" height="512" viewBox="0 0 964 512" xmlns="http://www.w3.org/2000/svg" xmlns:xlink="http://www.w3.org/1999/xlink"><svg viewBox="0 0 30 30" width="30" height="30" id="svgsprite_chair" x="608" y="451.74" xmlns="http://www.w3.org/2000/svg"><path d="M8.984 2.986A1 1 0 008 4v12.31c-.275.088-.589.181-.814.258A1.759 1.759 0 007 19.818V26a1 1 0 102 0v-6h12v6a1 1 0 102 0v-6.182a1.759 1.759 0 00-.186-3.25c-.225-.077-.539-.17-.814-.257V4a1 1 0 00-1.016-1.014A1 1 0 0020 4H10a1 1 0 00-1.016-1.014zM10 7h10v8.744a27.61 27.61 0 00-2-.443V9h-2v6.041A13.836 13.836 0 0015 15c-.327 0-.663.016-1 .041V9h-2v6.3c-.7.125-1.355.28-2 .444V7zm1 15v2h8v-2h-8z" fill="#575969"/></svg><svg viewBox="0 0 512.001 512.001" width="512" height="512" id="svgsprite_close" xmlns="http://www.w3.org/2000/svg"><path d="M284.286 256.002L506.143 34.144c7.811-7.811 7.811-20.475 0-28.285-7.811-7.81-20.475-7.811-28.285 0L256 227.717 34.143 5.859c-7.811-7.811-20.475-7.811-28.285 0-7.81 7.811-7.811 20.475 0 28.285l221.857 221.857L5.858 477.859c-7.811 7.811-7.811 20.475 0 28.285a19.938 19.938 0 0014.143 5.857 19.94 19.94 0 0014.143-5.857L256 284.287l221.857 221.857c3.905 3.905 9.024 5.857 14.143 5.857s10.237-1.952 14.143-5.857c7.811-7.811 7.811-20.475 0-28.285L284.286 256.002z"/></svg><svg viewBox="0 0 451.74 451.74" width="451.74" height="451.74" id="svgsprite_error" x="512" xmlns="http://www.w3.org/2000/svg"><path d="M446.324 367.381L262.857 41.692c-15.644-28.444-58.311-28.444-73.956 0L5.435 367.381c-15.644 28.444 4.267 64 36.978 64h365.511c34.133-1.422 54.044-35.556 38.4-64z" fill="#e24c4b"/><path d="M225.879 63.025l183.467 325.689H42.413L225.879 63.025z" fill="#fff"/><g fill="#3f4448"><path d="M196.013 212.359l11.378 75.378c1.422 8.533 8.533 15.644 18.489 15.644 8.533 0 17.067-7.111 18.489-15.644l11.378-75.378c2.844-18.489-11.378-34.133-29.867-34.133-18.49-.001-31.29 15.644-29.867 34.133z"/><circle cx="225.879" cy="336.092" r="17.067"/></g></svg><svg viewBox="0 0 24 24" width="24" height="24" id="svgsprite_instagram" x="668" y="451.74" xmlns="http://www.w3.org/2000/svg"><path d="M8 3a5 5 0 00-5 5v8a5 5 0 005 5h8a5 5 0 005-5V8a5 5 0 00-5-5H8zm10 2a1 1 0 110 2 1 1 0 010-2zm-6 2a5 5 0 11-.001 10.001A5 5 0 0112 7zm0 2a3 3 0 00-3 3 3 3 0 003 3 3 3 0 003-3 3 3 0 00-3-3z"/></svg><svg viewBox="0 0 32 32" width="32" height="32" id="svgsprite_natural_food" x="512" y="451.74" xmlns="http://www.w3.org/2000/svg"><path d="M9.5 3.813L9 4.28s-4 3.645-4 8.282c0 5.285 4.719 7.593 4.719 7.593l1.094.532.312-1.188s.258-1.078 1.25-2.219C13.367 16.141 15.008 15 18 15c4.457 0 7.566 2.395 8.531 3.188C25.761 19.265 22.895 23 18 23c-2.23 0-3.723-.484-4.625-.875a10.688 10.688 0 013.844-1.906c2.57-.692 4.562-.25 4.562-.25l.438-1.938s-.625-.152-1.625-.187-2.387.031-3.907.437c-3.039.817-6.695 3.074-9.062 8.313l1.813.812c.714-1.586 1.535-2.824 2.406-3.812C12.797 24.078 14.954 25 18 25c6.89 0 10.844-6.469 10.844-6.469l.437-.687-.593-.563S24.148 13 18 13c-1.102 0-2.04.164-2.906.406a8.188 8.188 0 00-.063-3.187c-.918-4.29-4.906-6.125-4.906-6.125zm.375 2.53c.785.458 2.625 1.65 3.188 4.282.28 1.316.18 2.348 0 3.031-.18.684-.376.938-.376.938-.667.441-1.374.875-1.812 1.375-.105.12-.191.254-.281.375a15.746 15.746 0 01-.094-1.75c.016-1.457.156-2.625.156-2.625l-1.969-.281s-.167 1.28-.187 2.874c-.008.692.02 1.461.094 2.22C7.777 15.952 7 14.655 7 12.561c0-2.91 2.148-5.421 2.875-6.218z" fill="#575969"/></svg><svg viewBox="0 0 24 24" width="24" height="24" id="svgsprite_phone" x="692" y="451.74" xmlns="http://www.w3.org/2000/svg"><path d="M19.22 15.25l-2.52-.29a1.99 1.99 0 00-1.64.57l-1.85 1.85a14.982 14.982 0 01-3.818-2.772A14.982 14.982 0 016.62 10.79l1.85-1.85c.43-.43.64-1.03.57-1.64l-.29-2.52a2.001 2.001 0 00-1.99-1.77H5.03c-1.13 0-2.07.94-2 2.07a16.935 16.935 0 004.943 10.947A16.935 16.935 0 0018.92 20.97c1.13.07 2.07-.87 2.07-2v-1.73c0-1.02-.76-1.87-1.77-1.99z"/></svg><svg viewBox="0 0 32 32" width="32" height="32" id="svgsprite_ruler" x="544" y="451.74" xmlns="http://www.w3.org/2000/svg"><path d="M0 8v16h32V8zm2 2h3v7h2v-7h2v4h2v-4h2v7h2v-7h2v4h2v-4h2v7h2v-7h2v4h2v-4h3v12H2z" fill="#575969"/></svg><svg viewBox="0 0 32 32" width="32" height="32" id="svgsprite_telegram" x="576" y="451.74" xmlns="http://www.w3.org/2000/svg"><path d="M26.07 3.996a2.974 2.974 0 00-.933.223h-.004c-.285.113-1.64.683-3.7 1.547l-7.382 3.109c-5.297 2.23-10.504 4.426-10.504 4.426l.062-.024s-.359.118-.734.375a2.03 2.03 0 00-.586.567c-.184.27-.332.683-.277 1.11.09.722.558 1.155.894 1.394.34.242.664.355.664.355h.008l4.883 1.645c.219.703 1.488 4.875 1.793 5.836.18.574.355.933.574 1.207.106.14.23.257.379.351a1.119 1.119 0 00.246.106l-.05-.012c.015.004.027.016.038.02.04.011.067.015.118.023.773.234 1.394-.246 1.394-.246l.035-.028 2.883-2.625 4.832 3.707.11.047c1.007.442 2.027.196 2.566-.238.543-.437.754-.996.754-.996l.035-.09 3.734-19.129c.106-.472.133-.914.016-1.343a1.807 1.807 0 00-.781-1.047 1.872 1.872 0 00-1.067-.27zm-.101 2.05c-.004.063.008.056-.02.177v.011l-3.699 18.93c-.016.027-.043.086-.117.145-.078.062-.14.101-.465-.028l-5.91-4.531-3.57 3.254.75-4.79 9.656-9c.398-.37.265-.448.265-.448.028-.454-.601-.133-.601-.133l-12.176 7.543-.004-.02-5.836-1.965v-.004l-.015-.003a.27.27 0 00.03-.012l.032-.016.031-.011s5.211-2.196 10.508-4.426c2.652-1.117 5.324-2.242 7.379-3.11 2.055-.863 3.574-1.496 3.66-1.53.082-.032.043-.032.102-.032z"/></svg><svg viewBox="0 0 30 30" width="30" height="30" id="svgsprite_viber" x="638" y="451.74" xmlns="http://www.w3.org/2000/svg"><path d="M25.362 8.32c-.409-1.459-1.218-2.614-2.405-3.431-1.498-1.032-3.221-1.398-4.709-1.62-2.059-.307-3.924-.35-5.7-.133-1.666.204-2.92.53-4.065 1.056-2.243 1.03-3.589 2.698-4 4.956a31.004 31.004 0 00-.412 3.032c-.18 2.185-.017 4.119.499 5.911.502 1.747 1.38 2.996 2.684 3.816.333.209.757.36 1.169.506.206.073.404.145.577.221v3.53a.835.835 0 001.419.599l3.257-3.168c.142-.162.142-.162.288-.165a99.47 99.47 0 003.38-.126c1.369-.075 2.955-.207 4.449-.83 1.367-.571 2.365-1.477 2.964-2.692.625-1.268.997-2.642 1.136-4.199.244-2.738.07-5.114-.531-7.263zm-5.671 10.42c-.327.535-.817.905-1.393 1.145-.421.176-.851.139-1.266-.037-3.484-1.474-6.215-3.798-8.021-7.137-.372-.688-.631-1.437-.928-2.164-.061-.15-.056-.325-.083-.488.026-1.175.927-1.836 1.837-2.036.348-.077.656.046.914.293a8.042 8.042 0 011.704 2.358c.186.389.102.733-.215 1.022-.065.06-.134.116-.205.169-.723.544-.829.955-.444 1.774.656 1.393 1.745 2.328 3.154 2.908.371.153.721.077 1.005-.224.038-.04.081-.079.109-.125.556-.927 1.361-.835 2.105-.306.489.347.963.713 1.447 1.067.734.541.728 1.049.28 1.781zm-4.18-9.597c-.187 0-.375.015-.559.046a.572.572 0 11-.188-1.128 4.494 4.494 0 015.174 5.176.572.572 0 01-1.127-.189 3.35 3.35 0 00-3.3-3.905zM18 12.857a.571.571 0 01-1.142 0c0-.945-.769-1.714-1.714-1.714a.571.571 0 010-1.142A2.859 2.859 0 0118 12.857zm3.846.697a.57.57 0 01-.684.431.571.571 0 01-.431-.683 5.045 5.045 0 00-6.034-6.034.57.57 0 11-.252-1.114 6.188 6.188 0 017.401 7.4z"/></svg></svg>