<?xml version="1.0" encoding="iso-8859-1"?><svg width="1025" height="964" viewBox="0 0 1025 964" xmlns="http://www.w3.org/2000/svg" xmlns:xlink="http://www.w3.org/1999/xlink"><svg viewBox="0 0 512.001 512.001" width="512" height="512" id="svgsprite_close" x="512.01" xmlns="http://www.w3.org/2000/svg"><path d="M284.286 256.002L506.143 34.144c7.811-7.811 7.811-20.475 0-28.285-7.811-7.81-20.475-7.811-28.285 0L256 227.717 34.143 5.859c-7.811-7.811-20.475-7.811-28.285 0-7.81 7.811-7.811 20.475 0 28.285l221.857 221.857L5.858 477.859c-7.811 7.811-7.811 20.475 0 28.285a19.938 19.938 0 0014.143 5.857 19.94 19.94 0 0014.143-5.857L256 284.287l221.857 221.857c3.905 3.905 9.024 5.857 14.143 5.857s10.237-1.952 14.143-5.857c7.811-7.811 7.811-20.475 0-28.285L284.286 256.002z"/></svg><svg viewBox="0 0 451.74 451.74" width="451.74" height="451.74" id="svgsprite_error" y="512.01" xmlns="http://www.w3.org/2000/svg"><path d="M446.324 367.381L262.857 41.692c-15.644-28.444-58.311-28.444-73.956 0L5.435 367.381c-15.644 28.444 4.267 64 36.978 64h365.511c34.133-1.422 54.044-35.556 38.4-64z" fill="#e24c4b"/><path d="M225.879 63.025l183.467 325.689H42.413L225.879 63.025z" fill="#fff"/><g fill="#3f4448"><path d="M196.013 212.359l11.378 75.378c1.422 8.533 8.533 15.644 18.489 15.644 8.533 0 17.067-7.111 18.489-15.644l11.378-75.378c2.844-18.489-11.378-34.133-29.867-34.133-18.49-.001-31.29 15.644-29.867 34.133z"/><circle cx="225.879" cy="336.092" r="17.067"/></g></svg><svg viewBox="0 0 512.006 512.006" width="512.01" height="512.01" id="svgsprite_phone" xmlns="http://www.w3.org/2000/svg"><path d="M502.05 407.127l-56.761-37.844-50.459-33.633c-9.738-6.479-22.825-4.355-30.014 4.873l-31.223 40.139c-6.707 8.71-18.772 11.213-28.39 5.888-21.186-11.785-46.239-22.881-101.517-78.23-55.278-55.349-66.445-80.331-78.23-101.517-5.325-9.618-2.822-21.683 5.888-28.389l40.139-31.223c9.227-7.188 11.352-20.275 4.873-30.014l-32.6-48.905-38.877-58.316C98.262.03 85.016-2.95 74.786 3.185L29.95 30.083A54.779 54.779 0 005.074 62.277C-7.187 106.98-9.659 205.593 148.381 363.633s256.644 155.56 301.347 143.298a54.771 54.771 0 0032.194-24.876l26.898-44.835c6.136-10.231 3.156-23.476-6.77-30.093zM291.309 79.447c82.842.092 149.977 67.226 150.069 150.069a8.828 8.828 0 0017.656 0c-.102-92.589-75.135-167.622-167.724-167.724a8.828 8.828 0 00-8.828 8.828 8.826 8.826 0 008.827 8.827z"/><path d="M291.309 132.412c53.603.063 97.04 43.501 97.103 97.103a8.828 8.828 0 0017.656 0c-.073-63.349-51.409-114.686-114.759-114.759a8.828 8.828 0 000 17.656z"/><path d="M291.309 185.378c24.365.029 44.109 19.773 44.138 44.138a8.828 8.828 0 0017.656 0c-.039-34.111-27.682-61.754-61.793-61.793a8.828 8.828 0 00-8.828 8.828 8.826 8.826 0 008.827 8.827z"/></svg><svg viewBox="0 0 30 30" width="30" height="30" id="svgsprite_viber" x="451.74" y="512.01" xmlns="http://www.w3.org/2000/svg"><path d="M25.362 8.32c-.409-1.459-1.218-2.614-2.405-3.431-1.498-1.032-3.221-1.398-4.709-1.62-2.059-.307-3.924-.35-5.7-.133-1.666.204-2.92.53-4.065 1.056-2.243 1.03-3.589 2.698-4 4.956a31.004 31.004 0 00-.412 3.032c-.18 2.185-.017 4.119.499 5.911.502 1.747 1.38 2.996 2.684 3.816.333.209.757.36 1.169.506.206.073.404.145.577.221v3.53a.835.835 0 001.419.599l3.257-3.168c.142-.162.142-.162.288-.165a99.47 99.47 0 003.38-.126c1.369-.075 2.955-.207 4.449-.83 1.367-.571 2.365-1.477 2.964-2.692.625-1.268.997-2.642 1.136-4.199.244-2.738.07-5.114-.531-7.263zm-5.671 10.42c-.327.535-.817.905-1.393 1.145-.421.176-.851.139-1.266-.037-3.484-1.474-6.215-3.798-8.021-7.137-.372-.688-.631-1.437-.928-2.164-.061-.15-.056-.325-.083-.488.026-1.175.927-1.836 1.837-2.036.348-.077.656.046.914.293a8.042 8.042 0 011.704 2.358c.186.389.102.733-.215 1.022-.065.06-.134.116-.205.169-.723.544-.829.955-.444 1.774.656 1.393 1.745 2.328 3.154 2.908.371.153.721.077 1.005-.224.038-.04.081-.079.109-.125.556-.927 1.361-.835 2.105-.306.489.347.963.713 1.447 1.067.734.541.728 1.049.28 1.781zm-4.18-9.597c-.187 0-.375.015-.559.046a.572.572 0 11-.188-1.128 4.494 4.494 0 015.174 5.176.572.572 0 01-1.127-.189 3.35 3.35 0 00-3.3-3.905zM18 12.857a.571.571 0 01-1.142 0c0-.945-.769-1.714-1.714-1.714a.571.571 0 010-1.142A2.859 2.859 0 0118 12.857zm3.846.697a.57.57 0 01-.684.431.571.571 0 01-.431-.683 5.045 5.045 0 00-6.034-6.034.57.57 0 11-.252-1.114 6.188 6.188 0 017.401 7.4z" fill="#575969"/></svg></svg>