<svg xmlns="http://www.w3.org/2000/svg" viewBox="0 0 30 30">
  <path d="M8.984375 2.9863281 A 1.0001 1.0001 0 0 0 8 4L8 16.310547C7.7249827 16.398058 7.4111969 16.491263 7.1855469 16.568359C6.4745469 16.811359 6 17.485328 6 18.236328C6 18.935059 6.4106025 19.532746 7 19.818359L7 26 A 1.0001 1.0001 0 1 0 9 26L9 20L21 20L21 26 A 1.0001 1.0001 0 1 0 23 26L23 19.818359C23.589397 19.532746 24 18.935059 24 18.236328C24 17.484328 23.525453 16.811359 22.814453 16.568359C22.588803 16.491263 22.275017 16.398058 22 16.310547L22 4 A 1.0001 1.0001 0 0 0 20.984375 2.9863281 A 1.0001 1.0001 0 0 0 20 4L10 4 A 1.0001 1.0001 0 0 0 8.984375 2.9863281 z M 10 7L20 7L20 15.744141C19.35548 15.580027 18.699775 15.425246 18 15.300781L18 9L16 9L16 15.041016C15.662755 15.016442 15.327135 15 15 15C14.672865 15 14.337245 15.016442 14 15.041016L14 9L12 9L12 15.300781C11.300225 15.425246 10.64452 15.580027 10 15.744141L10 7 z M 11 22L11 24L19 24L19 22L11 22 z"  />
</svg>